<svg width="32" height="40" viewBox="0 0 32 40" fill="none" xmlns="http://www.w3.org/2000/svg">
  <path d="M16 0C7.16344 0 0 7.16344 0 16C0 24.8366 7.16344 32 16 32C24.8366 32 32 24.8366 32 16C32 7.16344 24.8366 0 16 0Z" fill="#9333EA"/>
  <path d="M16 40L8 24H24L16 40Z" fill="#9333EA"/>
  <circle cx="16" cy="16" r="10" fill="white"/>
  <path fill-rule="evenodd" clip-rule="evenodd" d="M15 8H17V11H20V13H17V16H15V13H12V11H15V8Z" fill="#9333EA"/>
  <path d="M12 18C12 16.3431 13.3431 15 15 15H17C18.6569 15 20 16.3431 20 18H12Z" fill="#9333EA"/>
  <path d="M11 20C11 19.4477 11.4477 19 12 19H20C20.5523 19 21 19.4477 21 20C21 20.5523 20.5523 21 20 21H12C11.4477 21 11 20.5523 11 20Z" fill="#9333EA"/>
</svg> 