<svg xmlns="http://www.w3.org/2000/svg" width="200" height="200" viewBox="0 0 200 200" fill="none">
  <rect x="40" y="40" width="120" height="140" rx="10" fill="#FEE2E2" />
  <rect x="50" y="60" width="100" height="110" rx="5" fill="white" />
  <rect x="60" y="75" width="80" height="10" rx="2" fill="#F87171" opacity="0.3" />
  <rect x="60" y="95" width="80" height="10" rx="2" fill="#F87171" opacity="0.3" />
  <rect x="60" y="115" width="80" height="10" rx="2" fill="#F87171" opacity="0.3" />
  <rect x="60" y="135" width="40" height="10" rx="2" fill="#F87171" opacity="0.3" />
  <circle cx="110" cy="140" r="15" fill="#F87171" />
  <path d="M103 140L108 145L117 135" stroke="white" stroke-width="3" stroke-linecap="round" stroke-linejoin="round" />
  <rect x="40" y="40" width="120" height="30" rx="10" fill="#F87171" />
  <circle cx="60" cy="55" r="5" fill="white" />
  <circle cx="80" cy="55" r="5" fill="white" />
  <circle cx="100" cy="55" r="5" fill="white" />
  <circle cx="120" cy="55" r="5" fill="white" />
  <circle cx="140" cy="55" r="5" fill="white" />
</svg> 